<svg width="512" height="512" viewBox="0 0 512 512" fill="none" xmlns="http://www.w3.org/2000/svg">
<path d="M128.362 510.741C124.371 508.452 123.755 506.761 124.248 499.452C125.569 479.878 137.121 462.213 154.943 452.513C161.637 448.869 173.864 445.965 182.509 445.965H189.847V429.491V413.017L104.118 412.745C21.2442 412.483 18.2581 412.408 14.4337 410.512C12.2579 409.433 8.79885 406.82 6.74693 404.706C-0.58508 397.151 -0.165717 406.166 0.129452 262.458L0.394214 133.543L2.55209 129.544C7.31974 120.708 15.3789 116.104 26.1378 116.069L32.8862 116.049V61.6078C32.8862 23.8396 33.2261 6.42237 33.9961 4.73223C34.6066 3.39234 36.2024 1.79657 37.5423 1.18607C41.0132 -0.395356 470.648 -0.395356 474.119 1.18607C475.459 1.79657 477.055 3.39234 477.665 4.73223C478.435 6.42237 478.775 23.8396 478.775 61.6078V116.047L485.524 116.071C496.283 116.105 504.342 120.71 509.109 129.545L511.267 133.544L511.532 262.459C511.827 406.167 512.247 397.152 504.915 404.707C502.863 406.822 499.404 409.434 497.228 410.513C493.403 412.41 490.417 412.484 407.543 412.747L321.814 413.018V429.493V445.967H329.153C359.583 445.967 384.651 468.641 387.499 498.742C388.171 505.841 387.004 509.08 383.142 510.84C379.612 512.449 131.172 512.352 128.362 510.741ZM370.004 493.453C369.268 488.516 363.526 478.984 358.324 474.065C351.828 467.921 344.778 464.463 335.811 463.021C326.984 461.602 184.678 461.602 175.851 463.021C160.225 465.533 147.659 475.931 142.467 490.647C141.667 492.916 141.279 495.04 141.606 495.367C141.933 495.694 193.524 495.847 256.252 495.707C369.663 495.454 370.301 495.442 370.004 493.453ZM305.818 429.469V412.973H255.831H205.843V429.469V445.965H255.831H305.818V429.469ZM492.848 393.398L495.271 390.818L495.536 265.934C495.826 129.68 496.047 135.238 490.256 133.037C488.819 132.49 485.648 132.043 483.209 132.043H478.775V252.957V373.872L476.362 376.677L473.95 379.482H255.831H37.7118L35.299 376.677L32.8862 373.872V252.957V132.043H28.4524C26.0138 132.043 22.8428 132.49 21.4057 133.037C15.6149 135.238 15.8358 129.68 16.1251 265.934L16.3902 390.818L18.8139 393.398L21.2376 395.978H255.831H490.424L492.848 393.398ZM461.78 223.021V83.0554H255.831H49.8819V223.021V362.986H255.831H461.78V223.021ZM87.3726 345.846C82.7813 343.311 82.8738 344.534 82.8738 286.314V231.019H76.8752C72.2355 231.019 70.4296 230.572 68.9027 229.045C66.1709 226.313 65.4496 222.65 67.0378 219.574C68.7164 216.323 160.342 141.372 163.338 140.799C166.809 140.136 169.387 141.538 178.504 149.052L187.036 156.083L191.809 149.312C194.434 145.588 197.561 141.666 198.757 140.596L200.933 138.652L206.507 144.226L212.081 149.8L206.973 156.464C204.164 160.129 201.439 163.924 200.918 164.898C200.112 166.403 204.603 170.455 230.938 191.982C247.97 205.905 262.338 218.105 262.867 219.093C264.526 222.193 263.924 226.016 261.375 228.565C259.362 230.578 257.929 231.019 253.401 231.019H247.882L247.607 286.478L247.333 341.937L245.056 344.213L242.779 346.49L166.076 346.72C111.593 346.883 88.7929 346.63 87.3726 345.846ZM132.07 299.528C132.359 269.341 132.382 269.041 134.639 266.786C136.899 264.527 137.121 264.51 164.801 264.51H192.685L195.265 266.934L197.845 269.358V299.676V329.994H214.341H230.837V280.506V231.019H164.853H98.8698V280.506V329.994H115.324H131.779L132.07 299.528ZM181.849 305.5V281.006H165.353H148.857V305.5V329.994H165.353H181.849V305.5ZM231.366 214.071C229.663 211.315 165.544 159.941 164.37 160.392C163.058 160.895 103.418 209.32 99.3974 213.146C97.4678 214.983 98.8616 215.023 164.69 215.023C207.035 215.023 231.737 214.67 231.366 214.071ZM268.078 305.193C263.999 304.898 263.829 304.753 263.829 301.583C263.829 299.767 264.115 296.194 264.465 293.643L265.1 289.004H272.332H279.563L280.183 292.753C280.524 294.815 280.808 298.369 280.814 300.651L280.825 304.799L276.576 305.15C274.239 305.342 270.415 305.362 268.078 305.193ZM298.82 300.248C298.82 299.834 297.945 296.436 296.876 292.697C295.066 286.367 295.049 285.86 296.626 285.32C297.558 285.001 300.924 283.72 304.107 282.474L309.894 280.208L313.43 287.23C315.375 291.092 316.594 294.624 316.14 295.079C315.03 296.189 302.157 301.001 300.297 301.001C299.485 301.001 298.82 300.662 298.82 300.248ZM330.154 276.666L324.997 270.253L329.904 265.42C332.603 262.762 334.811 260.227 334.811 259.786C334.811 259.347 332.293 257.873 329.215 256.512C310.583 248.272 294.498 231.335 286.417 211.446C276.454 186.928 280.576 154.099 296.168 133.784C298.177 131.168 299.82 128.838 299.82 128.607C299.82 128.376 297.3 127.624 294.22 126.934C291.14 126.245 288.403 125.116 288.138 124.424C287.722 123.341 289.197 113.843 290.32 110.377C290.763 109.007 299.055 110.846 307.542 114.197L312.766 116.259L319.353 112.098C361.025 85.7801 416.169 101.883 437.414 146.573C447.171 167.1 448.168 189.639 440.25 210.731C428.224 242.764 397.298 264.01 362.696 264.01H353.506L344.408 273.545L335.311 283.079L330.154 276.666ZM370.222 238.016C374.726 227.98 376.651 218.904 379.284 195.278L379.869 190.029H363.339C344.209 190.029 346.135 188.353 347.83 203.525C349.882 221.895 355.308 240.029 360.394 245.516L362.926 248.249L365.264 246.053C366.549 244.845 368.781 241.228 370.222 238.016ZM339.81 242.642C339.81 242.436 339.125 240.327 338.289 237.956C334.665 227.685 330.902 206.368 330.844 195.777L330.812 190.029H314.271H297.73L298.403 193.778C301.673 211.971 315.275 230.768 331.312 239.254C337.931 242.757 339.81 243.506 339.81 242.642ZM396.579 238.39C404.113 234.184 415.034 223.458 419.611 215.77C422.936 210.184 427.038 199.376 428.147 193.278L428.738 190.029H412.465H396.193L394.935 202.776C393.641 215.886 391.07 229.198 388.347 236.893C385.705 244.355 385.848 244.381 396.579 238.39ZM330.812 167.565C330.812 159.465 333.659 141.769 336.523 132.067C337.906 127.38 339.264 122.759 339.54 121.798C340.011 120.157 339.811 120.148 336.228 121.645C325.657 126.061 313.262 136.988 306.941 147.461C303.318 153.463 299.51 163.203 298.409 169.284L297.73 173.033H314.271H330.812V167.565ZM379.207 167.784C377.334 148.059 374.43 134.579 369.91 124.637C365.121 114.104 362.532 113.682 357.592 122.63C352.716 131.461 348.964 147.143 347.265 165.785L346.605 173.033H363.155H379.706L379.207 167.784ZM428.218 170.284C424.284 152.483 413.629 136.299 399.826 127.159C394.948 123.929 387.553 120.046 386.278 120.046C386.03 120.046 386.722 122.439 387.816 125.363C390.838 133.44 393.597 147.182 394.927 160.786L396.125 173.033H412.476H428.826L428.218 170.284ZM222.956 130.612C220.692 127.027 218.84 123.88 218.84 123.619C218.84 122.815 231.176 116.225 233.969 115.538C236.466 114.923 236.739 115.253 239.327 122.024C240.826 125.948 241.891 129.304 241.694 129.483C241.401 129.747 229.972 135.749 227.705 136.829C227.358 136.995 225.221 134.197 222.956 130.612ZM255.994 118.208C255.355 114.333 254.831 110.708 254.831 110.151C254.831 109.067 258.195 108.376 266.578 107.741L271.827 107.343V115.694V124.045L268.078 124.057C266.016 124.063 262.715 124.335 260.743 124.661L257.158 125.254L255.994 118.208ZM461.78 41.0659V16.0721H255.831H49.8819V41.0659V66.0597H255.831H461.78V41.0659ZM66.5829 49.4355C66.1952 49.0478 65.878 45.2065 65.878 40.8993V33.0679H74.4163H82.9546L82.6642 41.3158L82.3738 49.5638L74.8308 49.8521C70.682 50.0106 66.9705 49.8232 66.5829 49.4355ZM99.5746 49.4355C99.187 49.0478 98.8698 45.2065 98.8698 40.8993V33.0679H107.408H115.946L115.656 41.3158L115.366 49.5638L107.823 49.8521C103.674 50.0106 99.9623 49.8232 99.5746 49.4355ZM132.566 49.4355C132.179 49.0478 131.862 45.2065 131.862 40.8993V33.0679H140.4H148.938L148.648 41.3158L148.357 49.5638L140.814 49.8521C136.666 50.0106 132.954 49.8232 132.566 49.4355Z" fill="black"/>
</svg>
