<svg width="512" height="512" viewBox="0 0 512 512" fill="none" xmlns="http://www.w3.org/2000/svg">
<path fill-rule="evenodd" clip-rule="evenodd" d="M399.383 278.003L396.854 277.733L395.936 274.259C395.45 272.423 395.189 271.568 394.937 271.28L394.478 269.489C394.352 268.823 394.028 267.851 393.461 266.24C384.317 240.393 362.366 218.559 336.374 209.424C329.066 206.859 318.518 204.474 314.478 204.474C313.227 204.474 313.092 204.591 313.092 205.635C313.092 206.274 312.795 207.804 312.435 209.037C309.456 219.189 296.595 228.405 279.423 232.68C271.476 234.66 266.67 235.164 255.807 235.164C246.168 235.164 243.126 234.912 235.611 233.49L234.72 233.319L232.182 232.734C231.498 232.464 230.661 232.212 229.509 231.888C213.579 227.442 202.014 218.73 199.17 209.028C198.81 207.795 198.513 206.265 198.513 205.626C198.513 204.582 198.369 204.465 197.127 204.465C193.077 204.465 182.655 206.823 175.096 209.451C150.346 218.055 128.638 239.052 119.098 263.603C117.811 266.924 117.226 268.535 117.1 269.471L116.56 271.19C116.182 271.856 115.75 273.476 115.03 276.644C114.805 277.643 114.571 277.751 112.033 278.003C106.345 278.57 100.81 281.252 96.4901 285.545C92.2241 289.784 89.4431 295.634 89.0381 301.277C88.8401 304.013 89.3172 307.352 92.7821 327.287C97.2011 352.748 100.036 369.2 101.026 375.095C101.386 377.246 102.034 381.053 102.475 383.546C102.907 386.039 103.663 390.395 104.149 393.23C104.635 396.065 105.481 400.888 106.03 403.948C106.579 407.008 107.137 410.257 107.263 411.157C107.389 412.057 107.938 415.306 108.478 418.366C110.665 430.768 111.556 436.042 112.006 439.183C113.266 448.039 114.454 451.504 117.631 455.662C121.798 461.116 127.603 464.572 134.587 465.76C135.649 465.94 190.755 466.057 257.058 466.021C371.96 465.958 377.72 465.922 380.051 465.211C384.803 463.762 388.115 461.764 391.625 458.2C395.63 454.141 397.646 450.352 398.6 445.123C400.364 435.421 403.559 415.909 403.622 414.46C403.622 414.379 403.631 414.298 403.64 414.226L404.036 411.913C404.207 411.301 404.504 409.969 404.756 408.628L405.314 405.676V405.235L405.341 405.262L405.575 404.092C405.71 403.444 406.187 400.699 406.637 397.973C407.393 393.437 408.527 386.822 412.01 366.653C414.206 353.891 414.818 350.354 415.925 343.982C416.51 340.58 417.536 334.649 418.193 330.797C420.371 318.044 421.514 311.465 422.18 307.919C424.862 293.447 414.323 279.605 399.383 278.003ZM412.433 322.346C411.74 326.315 410.444 333.821 409.553 339.041C408.653 344.252 407.249 352.415 406.43 357.176C405.611 361.937 404.117 370.559 403.127 376.337C402.425 380.396 401.588 385.283 400.94 389.009L400.877 388.991L393.938 429.211L393.965 429.22C393.425 432.325 392.867 435.925 392.408 439.39C391.742 444.421 391.256 446.32 389.951 448.867C387.854 452.971 383.858 456.31 379.133 457.903L376.595 458.758L255.726 458.74C139.861 458.722 134.758 458.686 132.589 457.966C129.313 456.877 127.918 456.067 125.443 453.808C122.698 451.297 120.349 446.869 119.773 443.098C119.548 441.631 118.81 436.996 118.126 432.802C116.965 425.629 116.47 422.686 113.86 407.53C113.284 404.173 112.807 401.212 112.807 400.969C112.807 400.861 112.708 400.852 112.546 400.915V400.24L111.673 394.985C110.845 390.026 102.466 341.336 100.252 328.628C95.3021 300.215 95.6801 303.032 96.4721 299.828C96.8501 298.289 97.5521 296.219 98.0381 295.229C99.2531 292.718 102.871 288.929 105.337 287.588C109.459 285.347 110.647 285.149 121.177 284.951C126.118 284.861 128.575 284.798 129.709 284.654H134.911C140.032 284.825 151.759 284.843 179.37 284.843C190.827 284.843 199.548 284.843 206.199 284.825V284.843H246.222C249.138 284.843 252.504 284.843 256.41 284.843C258.903 284.843 261.189 284.843 263.295 284.843H298.935V284.762C307.629 284.825 321.201 284.852 341.729 284.861C402.551 284.87 400.859 284.807 405.431 287.12C410.174 289.523 413.891 294.437 415.133 299.963C415.844 303.149 416.015 301.727 412.433 322.346Z" fill="white"/>
<path fill-rule="evenodd" clip-rule="evenodd" d="M385.694 470.736C384.911 470.412 347.993 470.313 255.096 470.394L125.587 470.502L124.282 471.807C121.708 474.381 122.464 479.007 125.677 480.402C126.811 480.897 146.179 480.987 256.005 480.996C384.677 481.014 385.01 481.005 386.369 480.177C389.969 477.99 389.555 472.329 385.694 470.736Z" fill="white"/>
<path fill-rule="evenodd" clip-rule="evenodd" d="M194.688 162.641C206.028 189.749 226.008 208.28 247.572 211.673C251.937 212.357 257.859 212.438 262.395 211.871C290.628 208.334 315.071 179.957 324.17 140.168C325.826 132.914 327.428 121.026 328.112 110.919C328.427 106.239 327.77 97.3197 326.69 91.7938C324.332 79.6349 318.59 67.278 310.913 57.828C298.746 42.8521 281.961 33.5282 263.223 31.3502C254.151 30.2972 241.893 31.6742 233.235 34.7342C219.375 39.6212 207.243 48.6751 198.414 60.699C187.434 75.6569 182.124 94.7098 183.654 113.592C185.328 134.129 188.307 147.395 194.688 162.641ZM193.761 121.629C194.688 121.629 199.116 123.528 201.087 124.779C201.987 125.346 202.797 125.742 202.878 125.661C202.959 125.58 202.734 123.195 202.365 120.378C201.906 116.904 201.69 112.116 201.681 105.564C201.672 97.0948 201.789 95.3398 202.59 91.5508C203.553 87.0418 205.353 82.5599 206.892 80.8859C207.387 80.3459 208.485 79.3919 209.34 78.7709L210.879 77.6369L216.342 79.8329C223.452 82.6859 232.956 85.5388 232.227 84.6028C231.804 84.0538 231.867 84.0629 232.551 84.6479C234.342 86.1688 247.653 88.2298 255.807 88.2478C261.468 88.2658 266.112 87.7618 273.321 86.3488C278.253 85.3858 278.811 85.1878 280.323 83.7929L281.97 82.2809L280.737 83.6849C279.873 84.6659 279.729 85.0078 280.242 84.8278C280.647 84.6838 282.042 84.2698 283.329 83.9188C287.334 82.8118 296.586 79.5269 299.07 78.3209C300.726 77.5199 301.184 77.6819 303.677 79.9229C309.374 85.0709 311.507 100.929 309.113 120.342C308.771 123.141 308.583 125.526 308.7 125.643C308.817 125.76 309.437 125.49 310.067 125.04C311.66 123.906 316.736 121.647 317.681 121.647C318.266 121.647 318.41 121.872 318.266 122.574C318.158 123.087 317.969 124.707 317.834 126.183C316.781 137.828 311.858 153.911 305.909 165.152C295.605 184.619 281.043 196.985 264.429 200.369C254.862 202.322 244.53 200.891 235.395 196.355C215.955 186.698 200.7 163.316 195.057 134.535C194.49 131.646 193.914 128.253 193.779 127.011C193.644 125.76 193.428 124.05 193.302 123.195C193.14 121.935 193.221 121.629 193.761 121.629Z" fill="white"/>
<path fill-rule="evenodd" clip-rule="evenodd" d="M271.943 306.185L259.954 299.257L255.957 296.964L251.961 299.257L239.971 306.185L237.743 307.463L235.975 308.495V442.361L237.743 443.377L239.971 444.654L243.968 446.964V313.114L247.964 310.804L251.961 308.495L253.73 307.463H258.168L259.954 308.495L263.95 310.804L267.947 313.114V371.423H254.876L251.961 373.11L247.964 375.42L251.961 377.729L254.876 379.416H267.947V437.742L271.943 435.433L272.025 435.384L275.94 433.123V382.348L271.943 380.039L270.879 379.416L267.947 377.729V373.11L270.879 371.423L271.943 370.817L275.94 368.508V308.495L274.171 307.463L271.943 306.185Z" fill="white"/>
<path fill-rule="evenodd" clip-rule="evenodd" d="M315.903 331.585L315.706 331.471L311.923 329.276H311.906L307.91 326.966L303.913 324.657L301.85 323.478L299.917 322.347L295.92 320.054L291.924 317.745L288.009 315.485H287.862L287.927 315.435L283.931 313.126V437.755L287.927 435.445L287.862 435.396H288.009L291.924 433.136L295.92 430.826L299.917 428.517L301.85 427.403L303.913 426.207L307.91 423.898L311.906 421.588L315.706 419.41L315.903 419.279L319.916 416.97L323.912 414.677V371.436H318.835L315.903 373.123L307.91 377.742L304.994 379.429H315.903V410.058L313.561 411.417L311.906 412.367L307.91 414.677L303.913 416.97L299.917 419.279V419.41H299.72L295.92 421.588L291.924 423.898V326.966L295.92 329.276L299.704 331.471H299.917V331.585L303.913 333.895L307.91 336.204L311.906 338.514L313.561 339.464L315.903 340.823V354.663L319.916 352.354L323.912 350.061V336.204L319.916 333.895L315.903 331.585Z" fill="white"/>
<path fill-rule="evenodd" clip-rule="evenodd" d="M224.05 315.485H223.903L219.972 317.745L215.976 320.054L211.979 322.347L210.046 323.478L207.983 324.657L203.986 326.966L199.99 329.276L196.206 331.471L195.993 331.585L191.997 333.895L188 336.204V345.426L191.997 343.116L195.993 340.823L198.352 339.464L199.99 338.514L203.986 336.204V423.898L207.983 426.207L210.046 427.403L211.979 428.517V331.471H212.192L215.976 329.276L219.972 326.966L223.969 324.657L226.032 323.478L227.965 322.347V313.126L223.969 315.435L224.05 315.485Z" fill="white"/>
</svg>
