<svg width="512" height="512" viewBox="0 0 512 512" fill="none" xmlns="http://www.w3.org/2000/svg">
<path d="M303.83 58.6644L267.861 37.8794L255.872 31L243.882 37.8794L207.914 58.6644L201.231 62.4972L195.924 65.5929V467.192L201.231 470.239L207.914 474.072L219.903 481V79.4497L231.893 72.5211L243.882 65.5929L249.189 62.4972H262.505L267.861 65.5929L279.851 72.5211L291.84 79.4497V254.379H252.629L243.882 259.44L231.893 266.368L243.882 273.296L252.629 278.358H291.84V453.336L303.83 446.407L304.076 446.26L315.819 439.479V287.153L303.83 280.225L300.636 278.358L291.84 273.296V259.44L300.636 254.379L303.83 252.56L315.819 245.632V65.5929L310.513 62.4972L303.83 58.6644Z" fill="white"/>
<path fill-rule="evenodd" clip-rule="evenodd" d="M303.83 58.6644L267.861 37.8794L255.872 31L243.882 37.8794L207.914 58.6644L201.231 62.4972L195.924 65.5929V467.192L201.231 470.239L207.914 474.072L219.903 481V79.4497L231.893 72.5211L243.882 65.5929L249.189 62.4972H262.505L267.861 65.5929L279.851 72.5211L291.84 79.4497V254.379H252.629L243.882 259.44L231.893 266.368L243.882 273.296L252.629 278.358H291.84V453.336L303.83 446.407L304.076 446.26L315.819 439.479V287.153L303.83 280.225L300.636 278.358L291.84 273.296V259.44L300.636 254.379L303.83 252.56L315.819 245.632V65.5929L310.513 62.4972L303.83 58.6644Z" fill="white"/>
<path d="M435.707 134.849L435.118 134.505L423.767 127.921H423.718L411.728 120.992L399.739 114.064L393.548 110.527L387.749 107.136L375.76 100.257L363.77 93.3284L352.026 86.5475H351.584L351.781 86.3999L339.791 79.4717V453.358L351.781 446.429L351.584 446.282H352.026L363.77 439.501L375.76 432.573L387.749 425.644L393.548 422.303L399.739 418.716L411.728 411.788L423.718 404.859L435.118 398.324L435.707 397.931L447.746 391.002L459.735 384.123V254.401H444.503L435.707 259.462L411.728 273.318L402.982 278.38H435.707V370.266L428.681 374.345L423.718 377.195L411.728 384.123L399.739 391.002L387.749 397.931V398.324H387.16L375.76 404.859L363.77 411.788V120.992L375.76 127.921L387.111 134.505H387.749V134.849L399.739 141.778L411.728 148.706L423.718 155.635L428.681 158.484L435.707 162.563V204.084L447.746 197.155L459.735 190.276V148.706L447.746 141.778L435.707 134.849Z" fill="white"/>
<path fill-rule="evenodd" clip-rule="evenodd" d="M435.707 134.849L435.118 134.505L423.767 127.921H423.718L411.728 120.992L399.739 114.064L393.548 110.527L387.749 107.136L375.76 100.257L363.77 93.3284L352.026 86.5475H351.584L351.781 86.3999L339.791 79.4717V453.358L351.781 446.429L351.584 446.282H352.026L363.77 439.501L375.76 432.573L387.749 425.644L393.548 422.303L399.739 418.716L411.728 411.788L423.718 404.859L435.118 398.324L435.707 397.931L447.746 391.002L459.735 384.123V254.401H444.503L435.707 259.462L411.728 273.318L402.982 278.38H435.707V370.266L428.681 374.345L423.718 377.195L411.728 384.123L399.739 391.002L387.749 397.931V398.324H387.16L375.76 404.859L363.77 411.788V120.992L375.76 127.921L387.111 134.505H387.749V134.849L399.739 141.778L411.728 148.706L423.718 155.635L428.681 158.484L435.707 162.563V204.084L447.746 197.155L459.735 190.276V148.706L447.746 141.778L435.707 134.849Z" fill="white"/>
<path d="M160.151 86.5475H159.709L147.916 93.3285L135.927 100.257L123.937 107.136L118.139 110.527L111.948 114.064L99.9581 120.993L87.9686 127.921L76.6179 134.505L75.9791 134.849L63.9895 141.778L52 148.706V176.37L63.9895 169.442L75.9791 162.563L83.0548 158.484L87.9686 155.635L99.9581 148.706V411.788L111.948 418.716L118.139 422.303L123.937 425.644V134.505H124.576L135.927 127.921L147.916 120.993L159.906 114.064L166.097 110.527L171.895 107.136V79.4717L159.906 86.3999L160.151 86.5475Z" fill="white"/>
<path fill-rule="evenodd" clip-rule="evenodd" d="M160.151 86.5475H159.709L147.916 93.3285L135.927 100.257L123.937 107.136L118.139 110.527L111.948 114.064L99.9581 120.993L87.9686 127.921L76.6179 134.505L75.9791 134.849L63.9895 141.778L52 148.706V176.37L63.9895 169.442L75.9791 162.563L83.0548 158.484L87.9686 155.635L99.9581 148.706V411.788L111.948 418.716L118.139 422.303L123.937 425.644V134.505H124.576L135.927 127.921L147.916 120.993L159.906 114.064L166.097 110.527L171.895 107.136V79.4717L159.906 86.3999L160.151 86.5475Z" fill="white"/>
</svg>
