<?xml version="1.0" encoding="UTF-8"?>
<!DOCTYPE svg PUBLIC "-//W3C//DTD SVG 1.1//EN" "http://www.w3.org/Graphics/SVG/1.1/DTD/svg11.dtd">
<svg xmlns="http://www.w3.org/2000/svg" version="1.1" width="512px" height="512px" style="shape-rendering:geometricPrecision; text-rendering:geometricPrecision; image-rendering:optimizeQuality; fill-rule:evenodd; clip-rule:evenodd" xmlns:xlink="http://www.w3.org/1999/xlink">
<g><path style="opacity:0.977" fill="#000000" d="M 32.5,-0.5 C 181.167,-0.5 329.833,-0.5 478.5,-0.5C 495.833,4.16667 506.833,15.1667 511.5,32.5C 511.5,138.5 511.5,244.5 511.5,350.5C 507.447,366.066 497.78,376.566 482.5,382C 456.885,383.463 431.218,383.963 405.5,383.5C 408.095,396.539 404.762,407.706 395.5,417C 391.779,419.527 387.779,421.527 383.5,423C 344.168,423.5 304.835,423.667 265.5,423.5C 265.17,430.532 265.503,437.532 266.5,444.5C 277.167,448.5 284.5,455.833 288.5,466.5C 325.829,467.333 363.162,467.833 400.5,468C 405.275,471.655 406.775,476.488 405,482.5C 403.833,484.333 402.333,485.833 400.5,487C 363.162,487.167 325.829,487.667 288.5,488.5C 283.597,500.077 275.263,507.744 263.5,511.5C 258.167,511.5 252.833,511.5 247.5,511.5C 235.737,507.744 227.403,500.077 222.5,488.5C 185.171,487.667 147.838,487.167 110.5,487C 105.725,483.345 104.225,478.512 106,472.5C 107.167,470.667 108.667,469.167 110.5,468C 147.838,467.833 185.171,467.333 222.5,466.5C 226.833,456.167 234.167,448.833 244.5,444.5C 245.497,437.532 245.83,430.532 245.5,423.5C 206.165,423.667 166.832,423.5 127.5,423C 116.333,419.833 109.167,412.667 106,401.5C 105.501,395.509 105.334,389.509 105.5,383.5C 79.7819,383.963 54.1152,383.463 28.5,382C 13.22,376.566 3.55338,366.066 -0.5,350.5C -0.5,244.5 -0.5,138.5 -0.5,32.5C 4.16667,15.1667 15.1667,4.16667 32.5,-0.5 Z M 41.5,19.5 C 184.167,19.3333 326.834,19.5 469.5,20C 479.776,20.7113 486.609,25.878 490,35.5C 490.5,52.8301 490.667,70.1635 490.5,87.5C 425.499,87.3333 360.499,87.5 295.5,88C 290.725,91.6551 289.225,96.4884 291,102.5C 292.167,104.333 293.667,105.833 295.5,107C 360.499,107.5 425.499,107.667 490.5,107.5C 490.667,187.501 490.5,267.501 490,347.5C 487.833,355 483,359.833 475.5,362C 452.169,362.5 428.836,362.667 405.5,362.5C 405.666,354.16 405.5,345.827 405,337.5C 403.421,333.345 401.588,329.345 399.5,325.5C 401.588,321.655 403.421,317.655 405,313.5C 405.667,292.167 405.667,270.833 405,249.5C 403.421,245.345 401.588,241.345 399.5,237.5C 401.588,233.655 403.421,229.655 405,225.5C 405.667,204.167 405.667,182.833 405,161.5C 401.833,150.333 394.667,143.167 383.5,140C 298.167,139.333 212.833,139.333 127.5,140C 116.333,143.167 109.167,150.333 106,161.5C 105.333,182.833 105.333,204.167 106,225.5C 107.579,229.655 109.412,233.655 111.5,237.5C 109.412,241.345 107.579,245.345 106,249.5C 105.333,270.833 105.333,292.167 106,313.5C 107.579,317.655 109.412,321.655 111.5,325.5C 109.412,329.345 107.579,333.345 106,337.5C 105.5,345.827 105.334,354.16 105.5,362.5C 82.1643,362.667 58.831,362.5 35.5,362C 29.4809,359.913 24.9809,356.08 22,350.5C 20.5085,269.557 20.0085,188.557 20.5,107.5C 85.5009,107.667 150.501,107.5 215.5,107C 220.275,103.345 221.775,98.5116 220,92.5C 218.833,90.6667 217.333,89.1667 215.5,88C 150.501,87.5 85.5009,87.3333 20.5,87.5C 20.3334,70.1635 20.5001,52.8301 21,35.5C 24.614,25.9531 31.4474,20.6198 41.5,19.5 Z M 135.5,159.5 C 215.501,159.333 295.501,159.5 375.5,160C 379.115,160.614 381.949,162.447 384,165.5C 384.667,184.167 384.667,202.833 384,221.5C 382.272,224.953 379.438,226.786 375.5,227C 295.5,227.667 215.5,227.667 135.5,227C 131.562,226.786 128.728,224.953 127,221.5C 126.333,202.833 126.333,184.167 127,165.5C 129.21,162.432 132.043,160.432 135.5,159.5 Z M 135.5,247.5 C 215.501,247.333 295.501,247.5 375.5,248C 379.115,248.614 381.949,250.447 384,253.5C 384.667,272.167 384.667,290.833 384,309.5C 382.272,312.953 379.438,314.786 375.5,315C 295.5,315.667 215.5,315.667 135.5,315C 131.562,314.786 128.728,312.953 127,309.5C 126.333,290.833 126.333,272.167 127,253.5C 129.186,250.465 132.019,248.465 135.5,247.5 Z M 135.5,335.5 C 215.501,335.333 295.501,335.5 375.5,336C 379.115,336.614 381.949,338.447 384,341.5C 384.667,360.167 384.667,378.833 384,397.5C 381.949,400.553 379.115,402.386 375.5,403C 295.5,403.667 215.5,403.667 135.5,403C 131.562,402.786 128.728,400.953 127,397.5C 126.333,378.833 126.333,360.167 127,341.5C 128.943,338.122 131.776,336.122 135.5,335.5 Z M 250.5,464.5 C 263.651,463.483 269.484,469.483 268,482.5C 264.269,489.78 258.435,492.28 250.5,490C 243.22,486.269 240.72,480.435 243,472.5C 245.028,469.308 247.528,466.641 250.5,464.5 Z"/></g>
<g><path style="opacity:0.906" fill="#000000" d="M 58.5,43.5 C 70.3244,41.8236 75.1577,46.8236 73,58.5C 69.3449,63.2745 64.5116,64.7745 58.5,63C 53.7255,59.3449 52.2255,54.5116 54,48.5C 55.3657,46.6383 56.8657,44.9717 58.5,43.5 Z"/></g>
<g><path style="opacity:0.906" fill="#000000" d="M 106.5,43.5 C 118.324,41.8236 123.158,46.8236 121,58.5C 117.345,63.2745 112.512,64.7745 106.5,63C 101.725,59.3449 100.225,54.5116 102,48.5C 103.366,46.6383 104.866,44.9717 106.5,43.5 Z"/></g>
<g><path style="opacity:0.906" fill="#000000" d="M 154.5,43.5 C 166.324,41.8236 171.158,46.8236 169,58.5C 165.345,63.2745 160.512,64.7745 154.5,63C 149.725,59.3449 148.225,54.5116 150,48.5C 151.366,46.6383 152.866,44.9717 154.5,43.5 Z"/></g>
<g><path style="opacity:0.907" fill="#000000" d="M 250.5,87.5 C 262.324,85.8236 267.158,90.8236 265,102.5C 261.345,107.275 256.512,108.775 250.5,107C 245.725,103.345 244.225,98.5116 246,92.5C 247.366,90.6383 248.866,88.9717 250.5,87.5 Z"/></g>
<g><path style="opacity:0.983" fill="#000000" d="M 156.5,183.5 C 187.502,183.333 218.502,183.5 249.5,184C 255.542,187.748 257.042,192.915 254,199.5C 252.786,201.049 251.286,202.215 249.5,203C 218.5,203.667 187.5,203.667 156.5,203C 148.649,196.522 148.649,190.022 156.5,183.5 Z"/></g>
<g><path style="opacity:0.896" fill="#000000" d="M 292.5,183.5 C 303.49,181.992 308.324,186.658 307,197.5C 303.723,203.109 298.89,204.942 292.5,203C 284.555,196.503 284.555,190.003 292.5,183.5 Z"/></g>
<g><path style="opacity:0.904" fill="#000000" d="M 344.5,183.5 C 356.461,181.957 361.295,186.957 359,198.5C 355.345,203.275 350.512,204.775 344.5,203C 339.725,199.345 338.225,194.512 340,188.5C 341.707,186.963 343.207,185.296 344.5,183.5 Z"/></g>
<g><path style="opacity:0.983" fill="#000000" d="M 156.5,271.5 C 187.502,271.333 218.502,271.5 249.5,272C 255.542,275.748 257.042,280.915 254,287.5C 252.786,289.049 251.286,290.215 249.5,291C 218.5,291.667 187.5,291.667 156.5,291C 148.649,284.522 148.649,278.022 156.5,271.5 Z"/></g>
<g><path style="opacity:0.896" fill="#000000" d="M 292.5,271.5 C 303.49,269.992 308.324,274.658 307,285.5C 303.723,291.109 298.89,292.942 292.5,291C 284.555,284.503 284.555,278.003 292.5,271.5 Z"/></g>
<g><path style="opacity:0.907" fill="#000000" d="M 344.5,271.5 C 356.461,269.957 361.295,274.957 359,286.5C 355.345,291.275 350.512,292.775 344.5,291C 337.867,284.501 337.867,278.001 344.5,271.5 Z"/></g>
<g><path style="opacity:0.983" fill="#000000" d="M 156.5,359.5 C 187.502,359.333 218.502,359.5 249.5,360C 255.542,363.748 257.042,368.915 254,375.5C 252.786,377.049 251.286,378.215 249.5,379C 218.5,379.667 187.5,379.667 156.5,379C 148.649,372.522 148.649,366.022 156.5,359.5 Z"/></g>
<g><path style="opacity:0.896" fill="#000000" d="M 292.5,359.5 C 303.49,357.992 308.324,362.658 307,373.5C 303.723,379.109 298.89,380.942 292.5,379C 284.555,372.503 284.555,366.003 292.5,359.5 Z"/></g>
<g><path style="opacity:0.906" fill="#000000" d="M 344.5,359.5 C 356.461,357.957 361.295,362.957 359,374.5C 355.345,379.275 350.512,380.775 344.5,379C 337.867,372.501 337.867,366.001 344.5,359.5 Z"/></g>
</svg>
