<svg width="512" height="427" viewBox="0 0 512 427" fill="none" xmlns="http://www.w3.org/2000/svg">
<path d="M139.233 424.072C137.583 422.422 136.616 420.236 136.616 418.158C136.616 416.08 137.583 413.894 139.233 412.244C141.674 409.803 142.594 409.627 152.853 409.627H163.856L170.163 377.9C173.632 360.451 176.677 345.094 176.929 343.775L177.389 341.375H157.002H136.616V332.844V324.312H238.993H341.371V307.249V290.186H179.273H17.1752V304.632C17.1752 318.547 17.2713 319.173 19.7929 321.695L22.4105 324.312H53.9187H85.4269V332.844V341.375H53.8243C32.129 341.375 20.8456 340.969 17.8322 340.078C11.9745 338.347 3.13996 329.513 1.40924 323.655C-0.469747 317.296 -0.469747 24.1961 1.40924 17.8365C3.13996 11.9788 11.9745 3.14427 17.8322 1.41357C24.2113 -0.471189 436.712 -0.471189 443.091 1.41357C448.949 3.14427 457.784 11.9788 459.514 17.8365C460.462 21.0437 460.811 37.6326 460.811 79.423V136.62H475.351C483.649 136.62 491.775 137.177 494.28 137.917C500.138 139.648 508.972 148.482 510.703 154.34C511.651 157.547 512 174.136 512 215.926V273.123H503.469H494.937V238.998V204.872H426.685H358.434V281.655V358.438H426.685H494.937V323.779V289.12H503.469H512V346.85C512 389.059 511.651 405.761 510.703 408.97C508.972 414.828 500.138 423.662 494.28 425.393C488.012 427.245 365.358 427.245 359.091 425.393C353.233 423.662 344.398 414.828 342.668 408.97C341.777 405.956 341.371 394.673 341.371 372.978V341.375H312.453H283.535L283.994 343.775C284.247 345.094 287.292 360.451 290.761 377.9L297.068 409.627H308.07C318.33 409.627 319.249 409.803 321.69 412.244C323.34 413.894 324.308 416.08 324.308 418.158C324.308 420.236 323.34 422.422 321.69 424.072L319.073 426.69H230.462H141.851L139.233 424.072ZM279.307 407.227C279.054 405.908 276.009 390.551 272.54 373.101L266.233 341.375H230.462H194.69L188.383 373.101C184.914 390.551 181.869 405.908 181.617 407.227L181.157 409.627H230.462H279.766L279.307 407.227ZM492.319 407.009C494.841 404.488 494.937 403.861 494.937 389.946V375.501H426.685H358.434V389.946C358.434 403.861 358.53 404.488 361.051 407.009L363.669 409.627H426.685H489.702L492.319 407.009ZM418.154 392.564V384.032H426.685H435.217V392.564V401.095H426.685H418.154V392.564ZM341.371 230.466V187.809H326.925C313.01 187.809 312.384 187.713 309.863 185.191L307.245 182.574V145.152V107.729L309.863 105.112L312.48 102.494H366.965H421.45L424.068 105.112C426.589 107.633 426.685 108.26 426.685 122.175V136.62H435.217H443.748V79.5175V22.4149L441.131 19.7973L438.513 17.1797H230.462H22.4105L19.7929 19.7973L17.1752 22.4149V147.769V273.123H179.273H341.371V230.466ZM34.2382 247.529V238.998H140.881H247.525V247.529V256.061H140.881H34.2382V247.529ZM264.588 247.529V238.998H294.448H324.308V247.529V256.061H294.448H264.588V247.529ZM34.2382 213.403V204.872H64.0983H93.9584V213.403V221.935H64.0983H34.2382V213.403ZM111.021 213.403V204.872H217.665H324.308V213.403V221.935H217.665H111.021V213.403ZM36.8558 185.191L34.2382 182.574V145.152V107.729L36.8558 105.112L39.4734 102.494H93.9584H148.443L151.061 105.112L153.679 107.729V145.152V182.574L151.061 185.191L148.443 187.809H93.9584H39.4734L36.8558 185.191ZM136.616 145.152V119.557H93.9584H51.3011V145.152V170.746H93.9584H136.616V145.152ZM173.359 185.191L170.742 182.574V145.152V107.729L173.359 105.112L175.977 102.494H230.462H284.947L287.564 105.112L290.182 107.729V145.152V182.574L287.564 185.191L284.947 187.809H230.462H175.977L173.359 185.191ZM273.119 145.152V119.557H230.462H187.804V145.152V170.746H230.462H273.119V145.152ZM34.2382 76.8998V68.3683H47.0354H59.8326V76.8998V85.4312H47.0354H34.2382V76.8998ZM76.8955 76.8998V68.3683H115.287H153.679V76.8998V85.4312H115.287H76.8955V76.8998ZM170.742 76.8998V68.3683H230.462H290.182V76.8998V85.4312H230.462H170.742V76.8998ZM307.245 76.8998V68.3683H366.965H426.685V76.8998V85.4312H366.965H307.245V76.8998ZM34.2382 42.774V34.2425H42.7696H51.3011V42.774V51.3055H42.7696H34.2382V42.774ZM68.364 42.774V34.2425H76.8955H85.4269V42.774V51.3055H76.8955H68.364V42.774ZM102.49 42.774V34.2425H111.021H119.553V42.774V51.3055H111.021H102.49V42.774ZM494.937 173.363C494.937 159.448 494.841 158.822 492.319 156.301L489.702 153.683H426.685H363.669L361.051 156.301C358.53 158.822 358.434 159.448 358.434 173.363V187.809H426.685H494.937V173.363ZM341.371 164.738C341.371 155.481 343.288 150.627 349.333 144.582C356.79 137.125 359.151 136.62 386.551 136.62H409.622V128.089V119.557H366.965H324.308V145.151V170.746H332.839H341.371V164.738ZM102.49 332.844V324.312H111.021H119.553V332.844V341.375H111.021H102.49V332.844ZM375.497 324.312V315.781H426.685H477.874V324.312V332.844H426.685H375.497V324.312ZM378.114 287.569L375.497 284.951V256.06V227.17L378.114 224.552L380.732 221.935H426.685H472.639L475.257 224.552L477.874 227.17V256.06V284.951L475.257 287.569L472.639 290.186H426.685H380.732L378.114 287.569ZM460.811 256.06V238.998H426.685H392.56V256.06V273.123H426.685H460.811V256.06Z" fill="black"/>
</svg>
